<?xml version="1.0" encoding="UTF-8"?>
<svg id="Layer_2" data-name="Layer 2" xmlns="http://www.w3.org/2000/svg" viewBox="0 0 752.97 180.92">
  <g id="Layer_1-2" data-name="Layer 1">
    <g>
      <g>
        <path fill="#8B5E3C" d="m589.74,61.62c.51-4.52,4.17-8.04,8.71-8.36l11.66-.61-11.66-.61c-4.54-.32-8.2-3.84-8.71-8.36l-.29-2.57-.29,2.57c-.51,4.52-4.17,8.04-8.71,8.36l-11.66.61,11.66.61c4.54.32,8.20,3.84,8.71,8.36l.29,2.57.29-2.57Z"/>
        <path fill="#8B5E3C" d="m598.43,52.46c-4.52-.56-7.99-4.26-8.27-8.80l-.48-11.67-.73,11.65c-.37,4.53-3.93,8.16-8.46,8.62l-2.57.26,2.56.32c4.52.56,7.99,4.26,8.27,8.80l.48,11.67.73-11.65c.37-4.53,3.93-8.16,8.46-8.62l2.57-.26-2.56-.32Z"/>
      </g>
      <g>
        <path fill="#8B5E3C" stroke="#8B5E3C" stroke-width="1.5" d="m104.51,7.28v17.56l-1.11-.69c-.19-.12-11.44-15.41-36.38-15.41-1.98,0-3.76.8-5.06,2.1s-2.1,3.08-2.1,5.06v89.98h-15.21V15.89c0-1.98-.8-3.76-2.1-5.06s-3.08-2.1-5.06-2.1C12.55,8.73,1.3,24.03,1.11,24.14l-1.11.69V7.28h104.51Z"/>
        <path fill="#8B5E3C" stroke="#8B5E3C" stroke-width="1.5" d="m208.51,105.86h-29.78l-.15-.07c-.22-.09-3.34-2.61-9.46-21.4-3.44-10.55-6.93-16.52-10.5-21.75-.77-1.13-1.75-2.12-2.89-2.88-.06-.04-.12-.08-.18-.12-2.31-1.52-5.16-2.03-7.87-1.51-4.70.91-9.26,2.53-13.47,4.83l-.7-1.27c6.54-3.57,13.88-5.57,21.31-5.83v-.03h1.7c7.22,0,13.94-3.23,18.52-9.01,2.62-3.3,4.29-7.29,4.83-11.48,1.83-14.35-9.37-26.63-23.36-26.63h-28.5v97.13h-15.2V7.28h54.16c13.99,0,25.74,11.45,25.51,25.44-.23,13.59-11.36,24.58-25.01,24.58h-11.03c-.63,0-1.27.02-1.91.04,1.30.73,2.60,1.59,3.92,2.58l.09.07c4.73,3.6,9.53,8.86,14.28,15.62,16.96,24.14,31.02,28.78,31.16,28.82l4.52,1.42Z"/>
        <path fill="#8B5E3C" stroke="#8B5E3C" stroke-width="1.5" d="m288.68,7.28v98.59h-15.2v-7.59c-6.95-5.68-22.01,4.97-28.23,6.75-1.95.55-3.94.84-5.93.84h-.13c-11.69,0-22.2-6.42-27.44-16.74-.23-.44-.44-.89-.66-1.35-2.13-4.56-3.69-9.92-4.62-15.94-4.98-32.15,6.39-63.75,6.51-64.07l.17-.48h17.61l-.6,1.08c-.22.40-21.12,38.54-18.21,74.29.20,2.48,1.39,6.28,2.62,8.45.02.03-1.52-2.64-1.52-2.64,1.29,2.55,2.93,4.85,4.83,6.85,5.31,5.59,13.82,9.8,20.5,5.96l.09-.05c.58-.33,1.17-.67,1.75-1.01,2.86-1.67,5.82-3.39,8.99-4.59,7.74-2.93,16.79-2.39,24.28,1.22V7.28h15.19Z"/>
      </g>
      <g>
        <path fill="#8B5E3C" stroke="#8B5E3C" stroke-width="0.8" d="m66.02,143.94h2.13v15.71h22.11v-15.71h2.13v34.62h-2.13v-17.07h-22.11v17.07h-2.13v-34.62Z"/>
        <path fill="#8B5E3C" stroke="#8B5E3C" stroke-width="0.8" d="m108.78,143.94h2.33l13.67,34.62h-2.28l-4.36-11.1h-16.58l-4.41,11.1h-2.28l13.92-34.62Zm8.68,21.67l-7.42-19.59h-.1l-7.71,19.59h15.23Z"/>
        <path fill="#8B5E3C" stroke="#8B5E3C" stroke-width="0.8" d="m127.26,143.94h2.13v34.62h-2.13v-34.62Z"/>
        <path fill="#8B5E3C" stroke="#8B5E3C" stroke-width="0.8" d="m135.5,143.94h14.45c1.52,0,2.94.15,4.27.46,1.33.31,2.49.81,3.49,1.5,1,.7,1.79,1.61,2.35,2.74.56,1.13.85,2.54.85,4.22,0,2.33-.65,4.29-1.96,5.89-1.31,1.6-3.13,2.59-5.46,2.98v.10c1.58.19,2.84.62,3.76,1.26.92.65,1.61,1.44,2.06,2.38.45.94.74,1.97.87,3.10.13,1.13.19,2.26.19,3.39v1.99c0,.65.03,1.25.10,1.82.06.57.17,1.09.31,1.58.15.48.35.89.61,1.21h-2.38c-.45-.81-.7-1.75-.75-2.84-.05-1.08-.07-2.21-.07-3.37s-.05-2.32-.15-3.47c-.10-1.15-.40-2.17-.92-3.08-.52-.90-1.33-1.63-2.45-2.18s-2.69-.82-4.73-.82h-12.32v15.76h-2.13v-34.62Zm14.45,17.02c1.26,0,2.43-.15,3.52-.46,1.08-.31,2.01-.78,2.79-1.43.78-.65,1.39-1.47,1.84-2.47.45-1,.68-2.2.68-3.59,0-1.29-.24-2.4-.73-3.32-.48-.92-1.13-1.67-1.94-2.25-.81-.58-1.75-1-2.81-1.26-1.07-.26-2.18-.39-3.35-.39h-12.32v15.18h12.32Z"/>
      </g>
      <g>
        <path fill="#8B5E3C" stroke="#8B5E3C" stroke-width="0.8" d="m358.01,151.56c-.07-1.49-.38-2.78-.95-3.88-.57-1.10-1.33-2.02-2.30-2.76-.97-.74-2.13-1.30-3.47-1.67-1.34-.37-2.81-.56-4.39-.56-.97,0-2.01.11-3.13.34s-2.15.62-3.10,1.19c-.95.57-1.74,1.33-2.35,2.28-.61.95-.92,2.14-.92,3.56s.34,2.52,1.02,3.39c.68.87,1.57,1.58,2.67,2.11,1.10.53,2.36.96,3.78,1.29,1.42.32,2.86.63,4.32.92,1.49.29,2.93.64,4.34,1.04s2.67.95,3.78,1.65c1.12.70,2.01,1.60,2.69,2.72.68,1.12,1.02,2.51,1.02,4.19,0,1.81-.39,3.33-1.16,4.56-.78,1.23-1.75,2.23-2.93,3.01-1.18.78-2.49,1.33-3.93,1.67-1.44.34-2.82.51-4.15.51-2.04,0-3.94-.22-5.72-.65-1.78-.44-3.33-1.15-4.65-2.13-1.33-.99-2.37-2.25-3.13-3.81-.76-1.55-1.12-3.44-1.09-5.67h2.13c-.10,1.91.18,3.52.82,4.82.65,1.31,1.54,2.38,2.69,3.22,1.15.84,2.50,1.45,4.05,1.82,1.55.37,3.18.56,4.90.56,1.03,0,2.14-.13,3.32-.39,1.18-.26,2.26-.69,3.25-1.31.99-.61,1.81-1.42,2.47-2.42s.99-2.26.99-3.78-.34-2.64-1.02-3.56c-.68-.92-1.58-1.66-2.69-2.23-1.12-.57-2.38-1.02-3.78-1.36-1.41-.34-2.85-.66-4.34-.95-1.45-.29-2.89-.63-4.32-1.02-1.42-.39-2.68-.91-3.78-1.58-1.10-.66-1.99-1.52-2.67-2.57-.68-1.05-1.02-2.40-1.02-4.05s.35-3.06,1.04-4.24c.69-1.18,1.60-2.13,2.72-2.86s2.37-1.26,3.76-1.60c1.39-.34,2.76-.51,4.12-.51,1.81,0,3.50.20,5.07.61,1.57.40,2.94,1.04,4.12,1.89,1.18.86,2.12,1.96,2.84,3.32.71,1.36,1.12,2.99,1.21,4.90h-2.13Z"/>
        <path fill="#8B5E3C" stroke="#8B5E3C" stroke-width="0.8" d="m365.96,141.67h2.13v19.93l21.77-19.93h2.76l-15.81,14.40,16.78,20.22h-2.67l-15.66-18.77-7.18,6.55v12.22h-2.13v-34.62Z"/>
        <path fill="#8B5E3C" stroke="#8B5E3C" stroke-width="0.8" d="m395.68,141.67h2.13v34.62h-2.13v-34.62Z"/>
        <path fill="#8B5E3C" stroke="#8B5E3C" stroke-width="0.8" d="m403.93,141.67h2.67l21.87,31.76h.10v-31.76h2.13v34.62h-2.52l-22.01-32h-.10v32h-2.13v-34.62Z"/>
      </g>
      <g>
        <path fill="#8B5E3C" stroke="#8B5E3C" stroke-width="0.8" d="m585.01,136.32h2.13v32.78h19.64v1.84h-21.77v-34.62Z"/>
        <path fill="#8B5E3C" stroke="#8B5E3C" stroke-width="0.8" d="m619.53,136.32h2.33l13.67,34.62h-2.28l-4.36-11.10h-16.58l-4.41,11.10h-2.28l13.92-34.62Zm8.68,21.67l-7.42-19.59h-.10l-7.71,19.59h15.23Z"/>
        <path fill="#8B5E3C" stroke="#8B5E3C" stroke-width="0.8" d="m660.60,146.21c-.07-1.49-.38-2.78-.95-3.88-.57-1.10-1.33-2.02-2.30-2.76-.97-.74-2.13-1.30-3.47-1.67-1.34-.37-2.80-.56-4.39-.56-.97,0-2.01.11-3.13.34s-2.15.62-3.10,1.19c-.95.57-1.74,1.33-2.35,2.28-.61.95-.92,2.14-.92,3.56s.34,2.52,1.02,3.39,1.57,1.58,2.67,2.11c1.10.53,2.36.96,3.78,1.29,1.42.32,2.86.63,4.32.92,1.49.29,2.93.64,4.34,1.04s2.67.95,3.78,1.65c1.12.70,2.01,1.60,2.69,2.72.68,1.12,1.02,2.51,1.02,4.19,0,1.81-.39,3.33-1.16,4.56-.78,1.23-1.75,2.23-2.93,3.01-1.18.78-2.49,1.33-3.93,1.67-1.44.34-2.82.51-4.15.51-2.04,0-3.94-.22-5.72-.65-1.78-.44-3.33-1.15-4.66-2.13-1.33-.99-2.37-2.25-3.13-3.81-.76-1.55-1.12-3.44-1.09-5.67h2.13c-.10,1.91.18,3.52.82,4.82.65,1.31,1.54,2.38,2.69,3.22,1.15.84,2.50,1.45,4.05,1.82,1.55.37,3.18.56,4.90.56,1.03,0,2.14-.13,3.32-.39,1.18-.26,2.26-.69,3.25-1.31.99-.61,1.81-1.42,2.47-2.42.66-1,.99-2.26.99-3.78s-.34-2.64-1.02-3.56c-.68-.92-1.58-1.66-2.69-2.23-1.12-.57-2.38-1.02-3.78-1.36-1.41-.34-2.85-.66-4.34-.95-1.46-.29-2.89-.63-4.32-1.02-1.42-.39-2.68-.91-3.78-1.58-1.10-.66-1.99-1.52-2.67-2.57-.68-1.05-1.02-2.40-1.02-4.05s.35-3.06,1.04-4.24c.69-1.18,1.60-2.13,2.71-2.86s2.37-1.26,3.76-1.60c1.39-.34,2.76-.51,4.12-.51,1.81,0,3.50.20,5.07.61,1.57.40,2.94,1.04,4.12,1.89,1.18.86,2.13,1.96,2.84,3.32.71,1.36,1.12,2.99,1.21,4.90h-2.13Z"/>
        <path fill="#8B5E3C" stroke="#8B5E3C" stroke-width="0.8" d="m668.55,136.32h23.28v1.84h-21.14v13.87h19.88v1.84h-19.88v15.23h21.38v1.84h-23.52v-34.62Z"/>
        <path fill="#8B5E3C" stroke="#8B5E3C" stroke-width="0.8" d="m695.71,136.32h14.45c1.52,0,2.94.15,4.27.46,1.32.31,2.49.81,3.49,1.50,1,.70,1.79,1.61,2.35,2.74.57,1.13.85,2.54.85,4.22,0,2.33-.66,4.29-1.96,5.89-1.31,1.60-3.13,2.59-5.46,2.98v.10c1.58.19,2.84.62,3.76,1.26.92.65,1.61,1.44,2.06,2.38.45.94.74,1.97.87,3.10.13,1.13.19,2.26.19,3.39v1.99c0,.65.03,1.25.10,1.82.06.57.17,1.09.32,1.58.15.48.35.89.61,1.21h-2.38c-.45-.81-.70-1.75-.75-2.84-.05-1.08-.07-2.21-.07-3.37s-.05-2.32-.15-3.47-.40-2.17-.92-3.08c-.52-.90-1.33-1.63-2.45-2.18s-2.69-.82-4.73-.82h-12.32v15.76h-2.13v-34.62Zm14.45,17.02c1.26,0,2.43-.15,3.52-.46,1.08-.31,2.01-.78,2.79-1.43.78-.65,1.39-1.47,1.84-2.47.45-1,.68-2.20.68-3.59,0-1.29-.24-2.40-.73-3.32-.48-.92-1.13-1.67-1.94-2.25-.81-.58-1.75-1-2.81-1.26-1.07-.26-2.18-.39-3.35-.39h-12.32v15.18h12.32Z"/>
      </g>
      <polygon fill="#8B5E3C" points="268.27 162.5 250.26 162.91 249.85 180.92 249.44 162.91 231.43 162.5 249.44 162.09 249.85 144.08 250.26 162.09 268.27 162.5"/>
      <polygon fill="#8B5E3C" points="537.82 162.5 519.81 162.91 519.4 180.92 518.99 162.91 500.98 162.5 518.99 162.09 519.4 144.08 519.81 162.09 537.82 162.5"/>
      <g>
        <path fill="#8B5E3C" stroke="#8B5E3C" stroke-width="1.5" d="m378.24,47.1h64.23v59.78h-12.04v-14.5c-10.1,9-23.51,14.3-37.94,14.49-.27,0-.51,0-.77,0h-.05c-31.17,0-56.53-23.98-56.53-53.44S360.51,0,391.68,0c.19,0,.39,0,.58,0h.31c21.28.31,40.36,11.71,49.81,29.76l.33.64-12.72,8.01-.27-1.06c-5.33-21.18-20.35-35.47-37.49-35.77h-.55c-22.06,0-40,23.26-40,51.86s17.94,51.86,40,51.86c.26,0,.50,0,.76,0,15.18-.37,29.13-12.16,35.53-30.02l.03-.08c1.62-4.53,2.44-9.44,2.44-14.59v-11.94h-52.19v-1.58Z"/>
        <path fill="#8B5E3C" stroke="#8B5E3C" stroke-width="1.5" d="m540.19,83.92v22.97h-82.75V0h16.48v105.3h9.6c4.06,0,8.10-.31,12.10-.93,33.02-5.14,43.04-18.36,43.14-18.50l1.43-1.96Z"/>
        <path fill="#8B5E3C" stroke="#8B5E3C" stroke-width="1.5" d="m635.05,53.44c0,29.47-20.49,53.44-45.67,53.44-10.33,0-19.88-4.05-27.54-10.85-2.10-1.55-3.91-3.45-5.40-5.64-7.87-9.61-12.73-22.63-12.73-36.95,0-29.47,20.49-53.44,45.67-53.44,10.34,0,19.88,4.05,27.55,10.85,2.09,1.55,3.90,3.45,5.40,5.64,7.87,9.61,12.73,22.63,12.73,36.95Zm-13.90-35.91c-1.61-1.96-3.34-3.78-5.18-5.43-.63-.46-1.28-.91-1.96-1.31-3.39-1.96-7.19-2.89-11.20-2.89-13.98,0-30.49,11.31-41.05,29.59-11,19.07-12.20,39.95-4.14,51.86,1.60,1.96,3.33,3.78,5.18,5.43.63.47,1.28.91,1.96,1.31,7.32,4.22,16.76,3.81,26.59-1.16,9.94-5.03,19.04-14.11,25.66-25.55,11.01-19.07,12.21-39.95,4.15-51.86Z"/>
        <path fill="#8B5E3C" stroke="#8B5E3C" stroke-width="1.5" d="m751.60,69.98c-1.01,6.52-2.70,12.34-5.01,17.29-7.53,16.20-19.49,19.04-22.90,19.52l.02.10h-17.12l-4.21-19.31c-7.53,15.92-19.37,18.73-22.75,19.21l.02.10h-17.12L639.29,0h17.12l22.89,105.23c2.89-.43,14.59-3.10,21.80-18.63.24-.53.48-1.07.72-1.62L683.34,0h17.12l22.89,105.23c1.71-.25,6.52-1.29,11.65-5.33,6.72-5.29,10.52-13.41,10.92-21.95,1.73-37.65-17.85-76.38-18.07-76.79l-.59-1.15h17.10l.19.52c.13.34,12.46,34.60,7.05,69.46Z"/>
      </g>
    </g>
  </g>
</svg>